# Blender v2.69 (sub 0) OBJ File: 'outer_corner_ramp_flat.blend'
# www.blender.org
o Cube
v -0.500000 -0.500000 0.500000
v -0.500000 -0.500000 -0.500000
v 0.500000 -0.500000 0.500000
v -0.500000 0.500000 0.500000
vt 0.000000 0.000000
vt 1.000000 0.000000
vt 0.500000 1.000000
vt 0.000000 1.000000
vt 1.000000 1.000000
vn 0.577350 0.577350 -0.577350
vn 0.000000 -1.000000 0.000000
vn -0.000000 0.000000 1.000000
vn -1.000000 -0.000000 0.000000
s off
f 3/1/1 2/2/1 4/3/1
f 2/2/2 3/1/2 1/4/2
f 3/5/3 4/4/3 1/1/3
f 2/1/4 1/2/4 4/5/4
