# Blender v2.69 (sub 0) OBJ File: 'steep_ramp.blend'
# www.blender.org
mtllib steep_ramp.mtl
o Cube
v -0.500000 -0.500000 -0.164224
v 0.500000 -0.500000 -0.164224
v 0.500000 -0.500000 0.147067
v -0.500000 -0.500000 0.166674
v 0.500000 0.500000 0.166675
v -0.500000 0.500000 0.166675
v 0.500000 -0.500000 0.500000
v -0.500000 -0.500000 0.500000
v 0.500000 0.500000 0.500000
v -0.500000 0.500000 0.500000
vt 0.000000 0.000000
vt 1.000000 0.000000
vt 1.000000 1.000000
vt 0.000000 1.000000
vn 0.000000 -1.000000 0.000000
vn 0.000000 0.314147 -0.949374
vn 1.000000 0.000000 0.000000
vn -1.000000 0.000000 -0.000001
vn -0.000000 -0.000000 1.000000
vn -0.000000 1.000000 0.000000
usemtl Material
s off
f 1/1/1 2/2/1 3/3/1 4/4/1
f 1/1/2 6/2/2 5/3/2 2/4/2
f 3/1/3 2/2/3 5/3/3
f 3/1/3 5/3/3 9/3/3 7/1/3
f 4/1/4 6/2/4 1/3/4
f 7/1/5 9/2/5 10/3/5 8/4/5
f 5/3/6 6/2/6 10/2/6 9/3/6
f 4/4/1 3/3/1 7/3/1 8/4/1
f 6/2/4 4/1/4 8/1/4 10/2/4
